<?xml version="1.0" standalone="no"?>
<!DOCTYPE svg PUBLIC "-//W3C//DTD SVG 20010904//EN"
 "http://www.w3.org/TR/2001/REC-SVG-20010904/DTD/svg10.dtd">
<svg version="1.0" xmlns="http://www.w3.org/2000/svg"
 width="600.000000pt" height="600.000000pt" viewBox="0 0 600.000000 600.000000"
 preserveAspectRatio="xMidYMid meet">

<g transform="translate(0.000000,600.000000) scale(0.100000,-0.100000)"
fill="#000000" stroke="none">
<path d="M0 3000 l0 -3000 3000 0 3000 0 0 3000 0 3000 -3000 0 -3000 0 0
-3000z m1839 1587 c52 -18 204 -112 612 -377 298 -194 548 -353 554 -353 7 0
256 159 555 353 568 370 608 392 736 405 130 14 279 -30 392 -117 66 -52 137
-149 171 -237 l26 -66 3 -1343 c2 -1129 0 -1342 -11 -1335 -128 76 -561 368
-589 396 -21 22 -50 64 -65 95 l-28 57 -3 918 c-1 505 -6 917 -10 915 -19 -7
-622 -403 -621 -408 0 -3 83 -58 185 -124 l184 -118 0 -354 c0 -195 -2 -354
-5 -354 -3 0 -210 133 -460 295 -249 162 -456 295 -460 295 -4 0 -211 -133
-460 -295 -249 -162 -456 -295 -459 -295 -3 0 -6 159 -6 354 l0 354 184 118
c102 66 184 122 183 126 -2 6 -614 408 -623 408 -2 0 -5 -413 -6 -917 l-3
-918 -26 -55 c-14 -30 -44 -73 -65 -95 -29 -30 -472 -328 -591 -398 -11 -7
-13 198 -11 1335 l3 1343 23 60 c29 78 82 157 146 218 60 57 186 122 266 136
82 15 200 5 279 -22z m951 -2080 l0 -273 103 -67 c57 -37 107 -67 112 -67 4 0
54 30 111 67 l104 66 0 274 c0 150 3 273 7 273 3 0 163 -102 355 -227 l348
-226 0 -83 c0 -150 -34 -247 -112 -323 -56 -54 -808 -542 -822 -534 -128 76
-773 504 -804 534 -78 75 -112 175 -112 329 l0 77 348 226 c191 124 350 227
355 227 4 0 7 -123 7 -273z"/>
</g>
</svg>
